<?xml version="1.0" encoding="utf-8"?>
<!-- Generator: Adobe Illustrator 19.1.0, SVG Export Plug-In . SVG Version: 6.00 Build 0)  -->
<svg version="1.1" id="Layer_1" xmlns="http://www.w3.org/2000/svg" xmlns:xlink="http://www.w3.org/1999/xlink" x="0px" y="0px"
	 viewBox="-427 274 104 14" style="enable-background:new -427 274 104 14;" xml:space="preserve">
<style type="text/css">
	.st0{fill:#1379D7;}
</style>
<g>
	<path class="st0" d="M-406.6,286.5c-1.5,0-2.9-0.6-3.9-1.6l-2.9-2.6l-1.6-1.4l0,0l-2.8-2.5c-0.7-0.7-1.6-1-2.5-1
		c-1.9,0-3.5,1.6-3.5,3.5s1.6,3.5,3.5,3.5c0.9,0,1.7-0.3,2.4-0.9h-1c-0.6,0-1-0.4-1-1s0.4-1,1-1h3.5c0.6,0,1,0.4,1,1v3.5
		c0,0.6-0.4,1-1,1s-1-0.4-1-1v-1.1c-1.1,1-2.4,1.6-3.9,1.6c-3.1,0-5.6-2.5-5.6-5.6s2.5-5.6,5.6-5.6c1.5,0,2.9,0.6,3.9,1.6l2.9,2.6
		l0,0l1.6,1.4l0,0l2.8,2.5c0.7,0.7,1.6,1,2.5,1c1.9,0,3.5-1.6,3.5-3.5s-1.6-3.5-3.5-3.5c-0.9,0-1.8,0.4-2.5,1.1l-0.1,0.1h1.2
		c0.6,0,1,0.4,1,1s-0.4,1-1,1h-3.5c-0.6,0-1-0.4-1-1V276c0-0.6,0.4-1,1-1s1,0.4,1,1v0.8c1-1,2.4-1.5,3.9-1.5c3.1,0,5.6,2.5,5.6,5.6
		S-403.5,286.5-406.6,286.5z"/>
	<g>
		<path class="st0" d="M-395.3,275.7l3.1,6.5l3.1-6.5h2.7v10.7h-2.2v-7.2l-2.8,6.1h-1.6l-2.8-6.1v7.2h-2.2v-10.7H-395.3z"/>
		<path class="st0" d="M-375.9,282.3c0,2.5-1.8,4.2-4.4,4.2c-2.6,0-4.4-1.7-4.4-4.2s1.8-4.2,4.4-4.2
			C-377.7,278.1-375.9,279.8-375.9,282.3z M-382.4,282.3c0,1.3,0.8,2.3,2,2.3c1.2,0,2-0.9,2-2.3c0-1.3-0.8-2.3-2-2.3
			C-381.6,280.1-382.4,281-382.4,282.3z"/>
		<path class="st0" d="M-366.3,282.3c0,2.5-1.8,4.2-4.4,4.2c-2.6,0-4.4-1.7-4.4-4.2s1.8-4.2,4.4-4.2
			C-368,278.1-366.3,279.8-366.3,282.3z M-372.7,282.3c0,1.3,0.8,2.3,2,2.3c1.2,0,2-0.9,2-2.3c0-1.3-0.8-2.3-2-2.3
			C-371.9,280.1-372.7,281-372.7,282.3z"/>
		<path class="st0" d="M-362.3,275.1v11.3h-2.4v-11.3H-362.3z"/>
		<path class="st0" d="M-357.2,275.7l3.1,6.5l3.1-6.5h2.7v10.7h-2.2v-7.2l-2.8,6.1h-1.6l-2.8-6.1v7.2h-2.2v-10.7H-357.2z"/>
		<path class="st0" d="M-337.8,282.3c0,2.5-1.8,4.2-4.4,4.2c-2.6,0-4.4-1.7-4.4-4.2s1.8-4.2,4.4-4.2
			C-339.6,278.1-337.8,279.8-337.8,282.3z M-344.2,282.3c0,1.3,0.8,2.3,2,2.3c1.2,0,2-0.9,2-2.3c0-1.3-0.8-2.3-2-2.3
			C-343.4,280.1-344.2,281-344.2,282.3z"/>
		<path class="st0" d="M-328.1,282.3c0,2.5-1.8,4.2-4.4,4.2c-2.6,0-4.4-1.7-4.4-4.2s1.8-4.2,4.4-4.2
			C-329.9,278.1-328.1,279.8-328.1,282.3z M-334.6,282.3c0,1.3,0.8,2.3,2,2.3c1.2,0,2-0.9,2-2.3c0-1.3-0.8-2.3-2-2.3
			C-333.7,280.1-334.6,281-334.6,282.3z"/>
		<path class="st0" d="M-324.1,275.1v11.3h-2.4v-11.3H-324.1z"/>
	</g>
</g>
</svg>
