<?xml version="1.0" encoding="utf-8"?>
<!-- Generator: Adobe Illustrator 19.1.0, SVG Export Plug-In . SVG Version: 6.00 Build 0)  -->
<svg version="1.1" id="Layer_1" xmlns="http://www.w3.org/2000/svg" xmlns:xlink="http://www.w3.org/1999/xlink" x="0px" y="0px"
	 viewBox="0 0 116 14" style="enable-background:new 0 0 116 14;" xml:space="preserve">
<style type="text/css">
	.st0{fill:#FFFFFF;}
</style>
<g>
	<polygon class="st0" points="21.5,1.1 19.7,2.9 19.7,1 18,1 18,5.9 22.9,5.9 22.9,4.1 20.9,4.1 22.2,2.9 30,2.9 30,11.2 22,11.2 
		12.2,1.1 1,1.1 1,12.8 12.2,12.8 14,11.1 14,13 15.7,13 15.7,8.2 10.9,8.2 10.9,9.8 12.8,9.8 11.5,11.2 2.7,11.2 2.7,2.9 11.5,2.9 
		21.2,12.8 31.7,12.8 31.7,1.1 	"/>
	<g>
		<path class="st0" d="M38.6,12.9h-1.9V1.7h2.9l3.4,7l3.4-7h2.9v11.2h-1.9V4.1l-3.9,7.8h-1.1l-3.9-7.8V12.9z"/>
		<path class="st0" d="M58.9,11.7C58,12.6,57,13,55.7,13s-2.3-0.4-3.2-1.3c-0.9-0.8-1.3-1.9-1.3-3.1s0.4-2.3,1.3-3.1
			c0.9-0.8,1.9-1.3,3.2-1.3s2.3,0.4,3.2,1.3s1.3,1.9,1.3,3.1S59.7,10.9,58.9,11.7z M53.8,10.6c0.5,0.5,1.1,0.8,1.9,0.8
			c0.8,0,1.4-0.3,1.9-0.8c0.5-0.5,0.8-1.2,0.8-2s-0.3-1.5-0.8-2c-0.5-0.5-1.2-0.8-1.9-0.8c-0.8,0-1.4,0.3-1.9,0.8
			c-0.5,0.5-0.8,1.2-0.8,2S53.3,10.1,53.8,10.6z"/>
		<path class="st0" d="M69.3,11.7c-0.9,0.8-1.9,1.3-3.2,1.3c-1.3,0-2.3-0.4-3.2-1.3s-1.3-1.9-1.3-3.1s0.4-2.3,1.3-3.1
			s1.9-1.3,3.2-1.3c1.3,0,2.3,0.4,3.2,1.3c0.9,0.8,1.3,1.9,1.3,3.1S70.2,10.9,69.3,11.7z M64.2,10.6c0.5,0.5,1.1,0.8,1.9,0.8
			c0.8,0,1.4-0.3,1.9-0.8c0.5-0.5,0.8-1.2,0.8-2s-0.3-1.5-0.8-2c-0.5-0.5-1.2-0.8-1.9-0.8c-0.8,0-1.4,0.3-1.9,0.8
			c-0.5,0.5-0.8,1.2-0.8,2S63.7,10.1,64.2,10.6z"/>
		<path class="st0" d="M74.4,12.9h-1.8V1h1.8V12.9z"/>
		<path class="st0" d="M79.2,12.9h-1.9V1.7h2.9l3.4,7l3.4-7h2.9v11.2H88V4.1l-3.9,7.8H83l-3.9-7.8V12.9z"/>
		<path class="st0" d="M99.5,11.7c-0.9,0.8-1.9,1.3-3.2,1.3c-1.3,0-2.3-0.4-3.2-1.3c-0.9-0.8-1.3-1.9-1.3-3.1s0.4-2.3,1.3-3.1
			c0.9-0.8,1.9-1.3,3.2-1.3c1.3,0,2.3,0.4,3.2,1.3s1.3,1.9,1.3,3.1S100.3,10.9,99.5,11.7z M94.3,10.6c0.5,0.5,1.1,0.8,1.9,0.8
			c0.8,0,1.4-0.3,1.9-0.8c0.5-0.5,0.8-1.2,0.8-2s-0.3-1.5-0.8-2c-0.5-0.5-1.2-0.8-1.9-0.8c-0.8,0-1.4,0.3-1.9,0.8
			c-0.5,0.5-0.8,1.2-0.8,2S93.8,10.1,94.3,10.6z"/>
		<path class="st0" d="M109.9,11.7c-0.9,0.8-1.9,1.3-3.2,1.3c-1.3,0-2.3-0.4-3.2-1.3c-0.9-0.8-1.3-1.9-1.3-3.1s0.4-2.3,1.3-3.1
			c0.9-0.8,1.9-1.3,3.2-1.3c1.3,0,2.3,0.4,3.2,1.3c0.9,0.8,1.3,1.9,1.3,3.1S110.8,10.9,109.9,11.7z M104.8,10.6
			c0.5,0.5,1.1,0.8,1.9,0.8c0.8,0,1.4-0.3,1.9-0.8c0.5-0.5,0.8-1.2,0.8-2s-0.3-1.5-0.8-2c-0.5-0.5-1.2-0.8-1.9-0.8
			c-0.8,0-1.4,0.3-1.9,0.8c-0.5,0.5-0.8,1.2-0.8,2S104.3,10.1,104.8,10.6z"/>
		<path class="st0" d="M115,12.9h-1.8V1h1.8V12.9z"/>
	</g>
</g>
</svg>
