<?xml version="1.0" encoding="utf-8"?>
<!-- Generator: Adobe Illustrator 19.1.0, SVG Export Plug-In . SVG Version: 6.00 Build 0)  -->
<svg version="1.1" id="Layer_1" xmlns="http://www.w3.org/2000/svg" xmlns:xlink="http://www.w3.org/1999/xlink" x="0px" y="0px"
	 viewBox="-245 413.9 104 14" style="enable-background:new -245 413.9 104 14;" xml:space="preserve">
<style type="text/css">
	.st0{fill:#FFFFFF;}
</style>
<path class="st0" d="M-224.6,426.4c-1.5,0-2.9-0.6-3.9-1.6l-2.9-2.6l-1.6-1.4l0,0l-2.8-2.5c-0.7-0.7-1.6-1-2.5-1
	c-1.9,0-3.5,1.6-3.5,3.5s1.6,3.5,3.5,3.5c0.9,0,1.7-0.3,2.4-0.9h-1c-0.6,0-1-0.4-1-1s0.4-1,1-1h3.5c0.6,0,1,0.4,1,1v3.5
	c0,0.6-0.4,1-1,1s-1-0.4-1-1v-1.1c-1.1,1-2.4,1.6-3.9,1.6c-3.1,0-5.6-2.5-5.6-5.6s2.5-5.6,5.6-5.6c1.5,0,2.9,0.6,3.9,1.6l2.9,2.6
	l0,0l1.6,1.4l0,0l2.8,2.5c0.7,0.7,1.6,1,2.5,1c1.9,0,3.5-1.6,3.5-3.5s-1.6-3.5-3.5-3.5c-0.9,0-1.8,0.4-2.5,1.1l-0.1,0.1h1.2
	c0.6,0,1,0.4,1,1s-0.4,1-1,1h-3.5c-0.6,0-1-0.4-1-1v-3.6c0-0.6,0.4-1,1-1s1,0.4,1,1v0.8c1-1,2.4-1.5,3.9-1.5c3.1,0,5.6,2.5,5.6,5.6
	S-221.5,426.4-224.6,426.4z"/>
<g>
	<path class="st0" d="M-213.3,415.6l3.1,6.5l3.1-6.5h2.7v10.7h-2.2v-7.2l-2.8,6.1h-1.6l-2.8-6.1v7.2h-2.2v-10.7H-213.3z"/>
	<path class="st0" d="M-193.9,422.2c0,2.5-1.8,4.2-4.4,4.2s-4.4-1.7-4.4-4.2s1.8-4.2,4.4-4.2C-195.7,418-193.9,419.7-193.9,422.2z
		 M-200.4,422.2c0,1.3,0.8,2.3,2,2.3s2-0.9,2-2.3c0-1.3-0.8-2.3-2-2.3C-199.6,420-200.4,420.9-200.4,422.2z"/>
	<path class="st0" d="M-184.3,422.2c0,2.5-1.8,4.2-4.4,4.2s-4.4-1.7-4.4-4.2s1.8-4.2,4.4-4.2C-186,418-184.3,419.7-184.3,422.2z
		 M-190.7,422.2c0,1.3,0.8,2.3,2,2.3s2-0.9,2-2.3c0-1.3-0.8-2.3-2-2.3C-189.9,420-190.7,420.9-190.7,422.2z"/>
	<path class="st0" d="M-180.3,415v11.3h-2.4V415H-180.3z"/>
	<path class="st0" d="M-175.2,415.6l3.1,6.5l3.1-6.5h2.7v10.7h-2.2v-7.2l-2.8,6.1h-1.6l-2.8-6.1v7.2h-2.2v-10.7H-175.2z"/>
	<path class="st0" d="M-155.8,422.2c0,2.5-1.8,4.2-4.4,4.2s-4.4-1.7-4.4-4.2s1.8-4.2,4.4-4.2C-157.6,418-155.8,419.7-155.8,422.2z
		 M-162.2,422.2c0,1.3,0.8,2.3,2,2.3s2-0.9,2-2.3c0-1.3-0.8-2.3-2-2.3C-161.4,420-162.2,420.9-162.2,422.2z"/>
	<path class="st0" d="M-146.1,422.2c0,2.5-1.8,4.2-4.4,4.2s-4.4-1.7-4.4-4.2s1.8-4.2,4.4-4.2S-146.1,419.7-146.1,422.2z
		 M-152.6,422.2c0,1.3,0.8,2.3,2,2.3s2-0.9,2-2.3c0-1.3-0.8-2.3-2-2.3C-151.7,420-152.6,420.9-152.6,422.2z"/>
	<path class="st0" d="M-142.1,415v11.3h-2.4V415H-142.1z"/>
</g>
</svg>
