<?xml version="1.0" encoding="utf-8"?>
<!-- Generator: Adobe Illustrator 19.1.0, SVG Export Plug-In . SVG Version: 6.00 Build 0)  -->
<svg version="1.1" id="Layer_1" xmlns="http://www.w3.org/2000/svg" xmlns:xlink="http://www.w3.org/1999/xlink" x="0px" y="0px"
	 viewBox="-283 264 393 34" style="enable-background:new -283 264 393 34;" xml:space="preserve">
<style type="text/css">
	.st0{fill:#1EC800;}
	.st1{opacity:0.6;fill:#1EB400;enable-background:new    ;}
	.st2{opacity:0.25;fill:#FFFFFF;enable-background:new    ;}
	.st3{fill:#FFFFFF;}
</style>
<g>
	<g>
		<path class="st0" d="M110,295.1c0,1.6-1.3,2.9-2.9,2.9h-387.2c-1.6,0-2.9-1.3-2.9-2.9v-28.2c0-1.6,1.3-2.9,2.9-2.9H107
			c1.6,0,2.9,1.3,2.9,2.9L110,295.1L110,295.1z"/>
		<g>
			<rect x="-249.5" y="264.5" class="st1" width="0.5" height="33"/>
			<rect x="-249" y="264.5" class="st2" width="0.5" height="33"/>
		</g>
		<path class="st1" d="M107.1,264.5c1.3,0,2.4,1.1,2.4,2.4V295c0,1.3-1.1,2.4-2.4,2.4h-387.2c-1.3,0-2.4-1.1-2.4-2.4v-28.1
			c0-1.3,1.1-2.4,2.4-2.4H107.1 M107.1,264h-387.2c-1.6,0-2.9,1.3-2.9,2.9V295c0,1.7,1.3,3,2.9,3H107c1.6,0,2.9-1.3,2.9-2.9v-28.2
			C110,265.3,108.7,264,107.1,264L107.1,264z"/>
		<g>
			<polygon class="st3" points="-263.4,273.6 -263.4,281.1 -268.6,273.6 -274.1,273.6 -274.1,288.4 -268.6,288.4 -268.6,280.9 
				-263.4,288.4 -257.9,288.4 -257.9,273.6 			"/>
		</g>
	</g>
	<g>
		<g>
			<path class="st3" d="M-127,282.1c0.9,0,1.8-0.1,2.6-0.3v1.1c-0.8,0.2-1.9,0.3-3,0.3h-0.9V277h1.3V282.1L-127,282.1z
				 M-123.9,276.4h1.2v9.1h-1.2v-5.2h-1.7v-1.1h1.7V276.4z M-120.7,285.7h-1.2v-9.5h1.2V285.7z"/>
			<path class="st3" d="M-114.2,280.2c0,2.2-1,3.4-2.5,3.4s-2.5-1.2-2.5-3.4c0-2.2,1-3.4,2.5-3.4S-114.2,278-114.2,280.2z
				 M-115.5,280.2c0-1.5-0.4-2.3-1.2-2.3s-1.2,0.9-1.2,2.3c0,1.5,0.4,2.3,1.2,2.3C-115.9,282.6-115.5,281.7-115.5,280.2z
				 M-112.9,276.3h1.3v9.5h-1.3V276.3z"/>
			<path class="st3" d="M-105.2,279.5h1.7v-3.2h1.3v9.5h-1.3v-5.2h-1.7v2.7h-4.4V277h1.3v2.3h1.9V277h1.3v2.5H-105.2z M-106.4,280.3
				h-1.9v1.9h1.9V280.3z"/>
			<path class="st3" d="M-93.1,280.2c0,2.2-1,3.4-2.5,3.4s-2.5-1.2-2.5-3.4c0-2.2,1-3.4,2.5-3.4C-94,276.8-93.1,278-93.1,280.2z
				 M-94.3,280.2c0-1.5-0.4-2.3-1.2-2.3s-1.2,0.9-1.2,2.3c0,1.5,0.4,2.3,1.2,2.3C-94.8,282.6-94.3,281.7-94.3,280.2z M-89.3,280.8
				h-1.5v5H-92v-9.5h1.3v3.4h1.5v1.1H-89.3z"/>
			<path class="st3" d="M-83.6,280.2c0,2.2-1,3.4-2.5,3.4s-2.5-1.2-2.5-3.4c0-2.2,1-3.4,2.5-3.4S-83.6,278-83.6,280.2z M-84.9,280.2
				c0-1.5-0.4-2.3-1.2-2.3s-1.2,0.9-1.2,2.3c0,1.5,0.4,2.3,1.2,2.3C-85.3,282.6-84.9,281.7-84.9,280.2z M-82.3,276.3h1.3v9.5h-1.3
				V276.3z"/>
			<path class="st3" d="M-78.9,277.1h4.5v1.1h-3.2v4.2h1c1.2,0,2.4-0.2,3.4-0.4v1.1c-0.9,0.3-2.4,0.4-3.7,0.4h-2
				C-78.9,283.5-78.9,277.1-78.9,277.1z M-72.9,276.3h1.3v9.5h-1.3V276.3z"/>
			<path class="st3" d="M-68.8,282.1V279h4.7v-1h-4.8v-1.1h6v3.1h-4.8v1h5v1.1h-2.7v1.3h3.7v1.1h-8.7v-1.1h3.7v-1.3H-68.8z"/>
			<path class="st3" d="M-56.9,282.1V279h4.7v-1H-57v-1.1h6v3.1h-4.8v1h5v1.1h-2.7v1.3h3.7v1.1h-8.7v-1.1h3.7v-1.3H-56.9z"/>
			<path class="st3" d="M-42.8,278.2h-4.8v-1.1h6.2c-0.1,2-0.3,4.3-0.6,6.1h1.9v1.1h-8.7v-1.1h5.5
				C-43.1,281.5-42.8,279.7-42.8,278.2z"/>
			<path class="st3" d="M-39.2,279.1c0-1.4,1-2.5,2.5-2.5s2.5,1.1,2.5,2.5s-1.1,2.4-2.5,2.4C-38.2,281.5-39.2,280.5-39.2,279.1z
				 M-37.9,279.1c0,0.8,0.5,1.3,1.2,1.3s1.2-0.5,1.2-1.3c0-0.9-0.5-1.4-1.2-1.4C-37.5,277.7-37.9,278.2-37.9,279.1z M-31.5,285.5
				h-6.2v-2.9h1.3v1.8h4.9C-31.5,284.4-31.5,285.5-31.5,285.5z M-31.7,283H-33v-6.7h1.3V283z"/>
		</g>
	</g>
</g>
</svg>
